<?xml version="1.0" encoding="UTF-8"?>
<svg xmlns="http://www.w3.org/2000/svg" xmlns:xlink="http://www.w3.org/1999/xlink" viewBox="0 0 379.86 452.37">
  <defs>
    <style>
      .cls-1 {
        fill: #f79c24;
      }

      .cls-2 {
        fill: url(#linear-gradient-5);
      }

      .cls-3 {
        fill: url(#linear-gradient-4);
      }

      .cls-4 {
        fill: url(#linear-gradient-3);
      }

      .cls-5 {
        fill: url(#linear-gradient-2);
      }

      .cls-6 {
        fill: url(#linear-gradient);
      }

      .cls-7, .cls-8, .cls-9 {
        fill: #ebf5ee;
      }

      .cls-10 {
        fill: #328794;
      }

      .cls-11 {
        fill: #59c4c2;
      }

      .cls-8 {
        stroke: #000;
      }

      .cls-8, .cls-9 {
        stroke-miterlimit: 10;
        stroke-width: 2px;
      }

      .cls-12 {
        fill: #233333;
      }

      .cls-9 {
        stroke: #020404;
      }

      .cls-13 {
        fill: #941a1d;
      }

      .cls-14 {
        fill: #0e7d73;
      }

      .cls-15 {
        fill: #19aa99;
      }
    </style>
    <linearGradient id="linear-gradient" x1="170.06" y1="238.34" x2="195.67" y2="282.7" gradientUnits="userSpaceOnUse">
      <stop offset="0" stop-color="#328794"/>
      <stop offset=".11" stop-color="#38919b"/>
      <stop offset=".46" stop-color="#4aacb0"/>
      <stop offset=".77" stop-color="#55bdbd"/>
      <stop offset="1" stop-color="#59c4c2"/>
      <stop offset="1" stop-color="#59c4c2"/>
      <stop offset="1" stop-color="#59c4c2"/>
    </linearGradient>
    <linearGradient id="linear-gradient-2" x1="-1499.25" y1="47.16" x2="-1535.97" y2="110.77" gradientTransform="translate(-1142.33 -747.99) rotate(-150) scale(1 -1)" gradientUnits="userSpaceOnUse">
      <stop offset="0" stop-color="#009da2"/>
      <stop offset=".18" stop-color="#1eaaad"/>
      <stop offset=".37" stop-color="#38b5b6"/>
      <stop offset=".56" stop-color="#4abdbc"/>
      <stop offset=".77" stop-color="#55c2c0"/>
      <stop offset="1" stop-color="#59c4c2"/>
    </linearGradient>
    <linearGradient id="linear-gradient-3" x1="-1507.7" y1="61" x2="-1487.54" y2="95.94" gradientTransform="translate(-1384.27) rotate(-180) scale(1 -1)" gradientUnits="userSpaceOnUse">
      <stop offset="0" stop-color="#0e7d73"/>
      <stop offset=".24" stop-color="#28968f"/>
      <stop offset=".54" stop-color="#43afaa"/>
      <stop offset=".8" stop-color="#53bebb"/>
      <stop offset="1" stop-color="#59c4c2"/>
      <stop offset="1" stop-color="#59c4c2"/>
      <stop offset="1" stop-color="#59c4c2"/>
    </linearGradient>
    <linearGradient id="linear-gradient-4" x1="271.76" y1="46.96" x2="235.04" y2="110.57" gradientTransform="translate(194.05 -181.57) rotate(60)" xlink:href="#linear-gradient-2"/>
    <linearGradient id="linear-gradient-5" x1="263.31" y1="60.81" x2="283.48" y2="95.74" gradientTransform="matrix(1,0,0,1,0,0)" xlink:href="#linear-gradient-3"/>
  </defs>
  <g id="back_circle" data-name="back circle">
    <ellipse class="cls-12" cx="195.36" cy="236.8" rx="171.07" ry="171.7"/>
  </g>
  <g id="Layer_24" data-name="Layer 24">
    <path d="M130.64,180.04s12.17,19.74,12.5,23.35c.33,3.62-15.87,52.36-8.96,69.46,6.91,17.1,9.29,20.34,14.55,24.61,5.26,4.28,15.46,2.96,24.67-.66s-2.97-50.42,4.5-60.12,17.17-4.48,22.02,4.1,18.66,8.96,18.66,8.96l1.05-11.15c.08-.86.13-2.16,1.28-5.16,2.81-7.29,8.37-10.32,13.6-21.12,8.39-17.33,6.46-20.78,3.1-28.25-3.36-7.46-106.96-4.04-106.96-4.04Z"/>
    <path d="M225.2,243.98s-20.62-.89-27.24,2.24c-12.23,5.79-21.27,8.21-29.48,7.09-8.21-1.12-36.96,3.52-35.1,16.95,1.87,13.43,9.68,26.8,16.38,29.27s24.37-.89,41.75-9.3c17.39-8.41,24.96-11.22,26.64-14.3s3.65-10.1,5.61-13.46c1.96-3.37,4.55-13.97,1.43-18.49Z"/>
    <ellipse cx="193.44" cy="120.41" rx="122.09" ry="79.83"/>
    <path d="M303.38,145.19c0,27.07-49.13,49.02-109.73,49.02s-109.73-21.95-109.73-49.02c0-20.81,27.47,19.37,68.41,12.26,12.33-2.14-5.65-18.02,39.51-18.02s23.65,14.7,39.64,17.95c27.51,5.59,71.9-32.72,71.9-12.18Z"/>
    <ellipse cx="129.12" cy="72.78" rx="31.2" ry="36.99" transform="translate(-19.09 74.31) rotate(-30)"/>
    <path d="M89,86.01s-9.44-7-9.62-24.49c.52-9.97,4.2-26.76,34.46-9.44,30.26,17.32,21.16,43.2,20.11,48.27-1.05,5.07-39.7-7.17-44.95-14.34Z"/>
    <ellipse cx="102.45" cy="95.77" rx="31.66" ry="43.22"/>
    <path d="M106.68,93.95c1.89-18.58,4.89-30.79,3.62-30.79s-9.84,12.14-9.84,30.81,3.15,32.1,4.41,32.1-.12-13.16,1.81-32.12Z"/>
    <ellipse cx="257.89" cy="72.57" rx="36.99" ry="31.2" transform="translate(66.1 259.63) rotate(-60)"/>
    <path d="M298.01,85.8s9.44-7,9.62-24.49c-.52-9.97-4.2-26.76-34.46-9.44-30.26,17.32-21.16,43.2-20.11,48.27,1.05,5.07,39.7-7.17,44.95-14.34Z"/>
    <ellipse cx="285.39" cy="96.07" rx="31.66" ry="43.22"/>
    <path d="M280.25,93.95c-1.89-18.58-4.89-30.79-3.62-30.79s9.84,12.14,9.84,30.81-3.15,32.1-4.41,32.1.12-13.16-1.81-32.12Z"/>
    <ellipse cx="169.96" cy="154.36" rx="4.27" ry="7.61"/>
    <ellipse cx="217.47" cy="154.36" rx="4.27" ry="7.61"/>
    <path d="M299.69,147.74c0,1.64-47.81,33.3-105.01,33.3s-102.14-30.96-102.14-33.3c0-.89,45.12,30.81,102.32,30.81s104.83-31.66,104.83-30.81Z"/>
    <path class="cls-10" d="M133.91,178.9s11.51,18.67,11.82,22.09-15.01,49.52-8.47,65.7,8.79,19.23,13.76,23.28c4.98,4.04,14.62,2.8,23.33-.62,8.71-3.42-2.81-47.68,4.25-56.86,7.06-9.18,16.23-4.24,20.82,3.88s17.65,8.47,17.65,8.47l1-10.54c.08-.81.12-2.05,1.21-4.88,2.66-6.9,7.92-9.76,12.86-19.97,7.93-16.39,6.11-19.66,2.93-26.71s-101.17-3.82-101.17-3.82Z"/>
    <path class="cls-6" d="M223.35,239.38s-19.51-.85-25.76,2.12c-11.57,5.48-20.12,7.76-27.88,6.71s-34.96,3.33-33.2,16.03c1.76,12.71,9.15,25.34,15.49,27.69,6.34,2.34,23.05-.84,39.49-8.8,16.44-7.96,23.61-10.61,25.2-13.53s3.45-9.55,5.3-12.73,4.31-13.22,1.36-17.48Z"/>
    <ellipse class="cls-11" cx="193.31" cy="122.51" rx="115.48" ry="75.5"/>
    <path class="cls-15" d="M77.74,119.08s-.9,20.91,6.67,28.48c7.57,7.57,12.8,3.79,19.29.54s11.72-4.15,10.46-11-3.24-4.87-8.65-9.91-17.67-3.97-20.01-13.34c-2.34-9.37-6.49-1.62-6.49-1.62l-1.26,6.85Z"/>
    <ellipse class="cls-5" cx="132.48" cy="77.46" rx="29.51" ry="34.99" transform="translate(-20.98 76.62) rotate(-30)"/>
    <path class="cls-4" d="M94.53,89.97s-8.93-6.62-9.1-23.16c.5-9.43,3.97-25.31,32.59-8.93s20.02,40.86,19.02,45.66-37.55-6.78-42.51-13.56Z"/>
    <ellipse class="cls-9" cx="107.25" cy="99.2" rx="29.94" ry="40.88"/>
    <path d="M111.26,97.49c1.79-17.57,4.62-29.12,3.43-29.12s-9.31,11.48-9.31,29.14,2.98,30.36,4.17,30.36-.11-12.45,1.71-30.38Z"/>
    <ellipse class="cls-3" cx="254.27" cy="77.26" rx="34.99" ry="29.51" transform="translate(60.23 258.84) rotate(-60)"/>
    <path class="cls-2" d="M292.22,89.78s8.93-6.62,9.1-23.16c-.5-9.43-3.97-25.31-32.59-8.93-28.62,16.38-20.02,40.86-19.02,45.66s37.55-6.78,42.51-13.56Z"/>
    <ellipse class="cls-8" cx="279.42" cy="99.2" rx="29.94" ry="40.88"/>
    <path d="M275.41,97.49c-1.79-17.57-4.62-29.12-3.43-29.12s9.31,11.48,9.31,29.14-2.98,30.36-4.17,30.36.11-12.45-1.71-30.38Z"/>
    <path class="cls-7" d="M297.29,145.94c0,25.61-46.47,46.36-103.78,46.36s-103.78-20.76-103.78-46.36c0-19.68,25.99,18.32,64.7,11.59,11.67-2.03-5.34-17.05,37.37-17.05s22.37,13.91,37.49,16.98c26.02,5.29,68-30.95,68-11.52Z"/>
    <path d="M293.81,148.35c0,1.55-45.22,31.49-99.32,31.49s-96.61-29.28-96.61-31.49c0-.84,42.67,29.14,96.78,29.14s99.15-29.95,99.15-29.14Z"/>
    <ellipse class="cls-13" cx="171.1" cy="154.39" rx="4.04" ry="7.19"/>
    <ellipse class="cls-13" cx="212.98" cy="154.39" rx="4.04" ry="7.19"/>
    <path d="M356.2,283.53c-7.81,15.29-22.23,36.88-64.23,36.85-14.4-.01-38.69-7.53-57.29-7.54-30.6-.02-37.22,22.17-38.72,27.27h-2.4c-1.5-5.1-8.08-27.31-38.68-27.33-18.6-.01-42.91,7.47-57.31,7.46-42-.03-56.39-21.64-64.17-36.95l13.51-12.29c7.79,9.01,18.59,15.61,41.39,15.63,15.9.01,45.91-6.87,62.41-6.86,34.8.03,44.08,29.43,44.08,29.43,0,0,9.32-29.39,44.12-29.37,16.5.01,46.5,6.93,62.4,6.94,22.8.02,33.61-6.58,41.41-15.57l13.49,12.31Z"/>
    <path class="cls-14" d="M356.23,277.41c-7.81,15.29-22.23,36.88-64.23,36.85-14.4-.01-38.69-7.53-57.29-7.54-30.6-.02-37.22,22.17-38.72,27.27h-2.4c-1.5-5.1-8.08-27.31-38.68-27.33-18.6-.01-42.91,7.47-57.31,7.46-42-.03-56.39-21.64-64.17-36.95l13.51-12.29c7.79,9.01,18.59,15.61,41.39,15.63,15.9.01,45.91-6.87,62.41-6.86,34.8.03,44.08,29.43,44.08,29.43,0,0,9.32-29.39,44.12-29.37,16.5.01,46.5,6.93,62.4,6.94,22.8.02,33.61-6.58,41.41-15.57l13.49,12.31Z"/>
    <path d="M260.95,349.57c-5.77-.04-12.05-.31-12.05-13.59s-4.63-29.96-8.96-34.59-4.32,10.5-2.78,15.13c1.54,4.63,4.32,14.83-.93,18.53s-19.51-3.39-19.46-7.41c.1-8.24,4.02-12.35,6.18-19.77s4.02-12.97.62-17.91c-3.4-4.94-10.26-15.4-11.4-19.58s-4.79-9.36,8.81-25.12c0,0,7.53-3.49,12.17-4.72,4.63-1.24,14.83-4.63,14.83-10.19s2.16-14.52,6.8-15.13c4.63-.62,9.88,0,12.05,2.78,2.16,2.78.31,12.35-1.24,14.83-1.54,2.47-13.28,13.59-14.83,14.52s9.4-11.14,18.53-12.97c3.71-.74,9.75,4.11,11.12,8.96.76,2.67,4.03,16.21-4.63,19.77-4.86,1.99-13.28.93-17.61,1.24s-10.81,4.63-10.81,6.49,9.57,9.88,17.91,9.88,12.35,2.78,16.06.31,11.31-9.21,18.04-2.32c10.04,10.27,1.83,29.26-3.22,30.74s-7.41,1.85-10.5-1.24c-3.09-3.09-7.41-12.05-15.75-14.83s-12.35-2.78-17.3-2.78-3.71,10.19.62,17.3,12.66,15.13,12.97,21.93c.31,6.8.99,19.81-5.25,19.77"/>
    <path class="cls-1" d="M219.37,240.67s7.13-3.3,11.51-4.47c4.38-1.17,14.02-4.38,14.02-9.64s2.04-13.73,6.43-14.31c4.38-.58,9.35,0,11.39,2.63s.29,11.69-1.17,14.02-14.33,9.92-14.02,13.73c.14,1.7,8.89-10.54,17.53-12.27,3.5-.7,9.22,3.89,10.52,8.47.72,2.53,3.81,15.34-4.38,18.7-4.59,1.89-12.56.88-16.65,1.17s-10.22,4.38-10.22,6.13,9.06,9.35,16.94,9.35,11.69,2.63,15.19.29c3.51-2.34,10.7-8.71,17.06-2.2,9.5,9.72,1.62,27.33-3.04,29.07-5.18,1.93-7.01,1.75-9.93-1.17-2.92-2.92-7.01-11.39-14.9-14.02s-11.69-2.63-16.36-2.63-3.51,9.64.58,16.36c4.09,6.72,11.98,14.31,12.27,20.74s.93,18.74-4.97,18.7c-5.46-.04-11.39-.29-11.39-12.85s-4.38-28.34-8.47-32.72-4.09,9.93-2.63,14.31,4.09,14.02-.88,17.53-18.45-3.2-18.4-7.01c.09-7.79,3.8-11.69,5.84-18.7s3.8-12.27.58-16.94-8.56-8.6-9.64-12.56-5.67-14.81,7.19-29.71Z"/>
    <path d="M101.97,145.6c-2.29,1.75-5.56,2.87-5.74,6.12-1.46-3.32,2.91-5.87,5.74-6.12h0Z"/>
    <path d="M288.71,145.6c2.82.25,7.2,2.8,5.74,6.12-.18-3.26-3.45-4.37-5.74-6.12h0Z"/>
    <path class="cls-14" d="M135.75,250.35s1.72-19.43,3.92-24.45c1.41-3.23,7.96,2.25,6,6.46-3.31,7.1,9.91-3.37,11.14-2.08,5.39,5.63,6.86-7.47,11.39,2.94,1.96,4.5-5.69,13.25-7.84,13.68-3.13.63-17.87,5.8-19.9,8.78s-4.23,4.7-4.23,5.48-1.25-6.11-.47-10.81Z"/>
    <path id="mancha" class="cls-15" d="M212.54,78.26c.43,7.78-11.49-14.45-20.75-9.82-12.65,10.84-23.11,54.09-24.46,12.42-.9-27.7-33.17-27.36-2.65-31.59,6.24-.86,6.87-1.05,13.44-1.62,4.97-.43,10.05-.65,15.2-.65,0,0,18.38,15.68,19.23,31.26Z"/>
    <path class="cls-14" d="M188.42,284.56s-14.41-9.28-7.79-9.28,3.64-5.47,7.45-6.79c3.81-1.33,4.64,6.46,8.78,6.46s3.48,4.14,3.48,4.14l-11.93,5.47Z"/>
    <path class="cls-14" d="M220.54,195.97s-17.84,5.89-10.46,6.07,14.48-5.51,14.11-3.18-4.39,5.32-.19,6.07c4.2.75,3.46,1.59,5.51,2.43s3.36.65,3.36.65c0,0,5.42-11.4,4.95-15.6-9.06,1.96-17.28,3.55-17.28,3.55Z"/>
    <path class="cls-15" d="M240.69,157.58s-22.44-8.16-14.86-18.07,11.66-2.91,14.86-2.62,9.32-3.79,9.62.58,1.17,8.45,3.21,10.49,3.78,4.1,3.45,4.75-13.32,4.73-16.27,4.86Z"/>
    <path class="cls-15" d="M150.93,110.61s-11.44,5.86-7.81,11.72,6.7,4.74,10.05,4.74-.28,6.98,6.14,6.42,6.7-4.19,7.54-8.65,3.91-11.16-.84-12.28-7.26-4.74-15.07-1.95Z"/>
    <path class="cls-15" d="M210.38,112.21s5.76,11.49,11.65,7.92c5.89-3.58,11.76.25,11.79-3.1s.02-6.57-.48-12.99-4.13-6.74-8.58-7.61-11.13-4.01-12.29.73-4.81,7.21-2.09,15.05Z"/>
    <path d="M163.69,84.64c-.7-2.08-1.23-4.15-1.76-6.21l-1.9-6.03c-.54-1.41-1.11-2.97-1.61-4.39-.41-.89-1.47-3.31-1.88-4.23-4.18-8.31-10.15-15.68-18.79-19.77,4.4.22,8.61,2.24,12.18,4.92,10.67,8.26,14.89,22.66,13.75,35.71h0Z"/>
    <path d="M222.21,84.64c-1.13-13.05,3.08-27.46,13.75-35.71,3.57-2.68,7.78-4.7,12.18-4.92-8.64,4.09-14.61,11.46-18.79,19.77-.41.94-1.46,3.34-1.88,4.23-.5,1.43-1.07,2.98-1.61,4.39,0,0-1.9,6.03-1.9,6.03-.53,2.05-1.05,4.12-1.76,6.21h0Z"/>
  </g>
</svg>